<?xml version="1.0" standalone="no"?>
<!DOCTYPE svg PUBLIC "-//W3C//DTD SVG 20010904//EN"
 "http://www.w3.org/TR/2001/REC-SVG-20010904/DTD/svg10.dtd">
<svg version="1.0" xmlns="http://www.w3.org/2000/svg"
 width="427.000000pt" height="316.000000pt" viewBox="0 0 427.000000 316.000000"
 preserveAspectRatio="xMidYMid meet">
<metadata>
Created by potrace 1.15, written by Peter Selinger 2001-2017
</metadata>
<g transform="translate(0.000000,316.000000) scale(0.100000,-0.100000)"
fill="#000000" stroke="none">
<path d="M1788 3155 c-3 -4 -4 -15 -1 -25 4 -15 11 -18 29 -14 18 5 30 0 43
-15 19 -22 19 -22 26 -2 8 28 23 27 28 -1 l4 -23 8 23 c8 25 25 30 25 7 0 -8
-5 -15 -10 -15 -12 0 -1 -53 12 -58 4 -2 8 -11 9 -20 1 -9 7 1 14 23 9 26 14
32 14 18 1 -17 5 -20 24 -15 12 3 25 10 29 15 4 7 11 7 21 -1 12 -10 16 -9 20
3 4 8 1 14 -5 12 -6 -1 -12 3 -15 10 -3 7 3 9 16 6 12 -3 21 -9 21 -14 0 -10
-23 -62 -30 -69 -4 -3 -1 -16 6 -28 7 -15 14 -20 18 -13 4 6 5 15 2 20 -4 5 3
7 14 4 11 -3 20 0 20 6 0 6 -5 11 -11 11 -5 0 -7 5 -4 10 3 6 1 10 -4 10 -6 0
-11 7 -11 16 0 8 5 12 10 9 6 -3 10 1 10 9 0 9 5 16 11 16 5 0 7 6 3 13 -4 6
-4 9 1 5 4 -4 9 -25 11 -45 5 -62 8 -72 16 -67 4 3 8 0 8 -5 0 -6 -13 -11 -30
-11 -26 0 -30 -4 -30 -27 0 -16 5 -35 11 -43 8 -12 9 -10 4 8 -5 19 -3 22 20
22 18 0 25 -4 21 -12 -3 -7 -9 -21 -12 -30 -4 -10 -10 -19 -15 -19 -5 -1 -15
-2 -21 -3 -7 -1 -12 -8 -10 -15 2 -11 -3 -10 -23 3 -20 13 -25 14 -25 2 0 -16
-43 -30 -48 -16 -2 6 -8 10 -13 10 -6 0 -8 -4 -5 -9 3 -5 -1 -12 -10 -15 -25
-9 -54 -7 -54 4 0 6 -9 2 -21 -8 -26 -25 -66 -35 -159 -38 -41 -1 -86 -5 -100
-8 -14 -4 -58 -9 -99 -12 -41 -3 -78 -7 -81 -9 -4 -3 -32 -7 -61 -11 -30 -3
-65 -8 -79 -10 -24 -5 -190 -27 -295 -40 -27 -4 -57 -10 -65 -14 -21 -11 -107
-22 -310 -40 -68 -6 -127 -13 -130 -15 -3 -2 -37 -6 -75 -10 -39 -4 -86 -10
-105 -15 -19 -4 -56 -11 -82 -15 -39 -5 -49 -10 -52 -28 -8 -41 -26 -589 -20
-599 10 -15 492 -5 521 10 12 7 38 14 57 18 48 7 49 -17 2 -46 -25 -15 -48
-20 -83 -19 -42 3 -245 -7 -343 -16 -19 -2 -72 -7 -118 -10 -45 -4 -84 -11
-87 -15 -2 -4 -5 -155 -6 -335 -1 -356 -3 -344 56 -345 17 -1 50 -3 75 -4 189
-16 260 -19 367 -20 l123 -1 0 -26 c0 -26 -1 -27 -52 -23 -29 2 -108 6 -175 8
-67 2 -128 8 -134 11 -6 4 -15 1 -20 -6 -5 -8 -9 -9 -9 -4 0 12 -130 8 -142
-3 -12 -13 -28 -665 -16 -679 6 -7 23 -13 39 -13 16 0 29 -4 29 -9 0 -22 293
-57 358 -42 95 22 108 22 136 0 15 -12 30 -19 33 -15 4 3 16 0 28 -8 21 -14
215 -52 309 -60 79 -8 136 -18 136 -25 0 -3 20 -6 45 -5 25 1 45 -1 45 -5 0
-4 18 -6 40 -5 31 1 40 -2 41 -15 0 -10 2 -11 6 -3 2 6 13 12 24 12 10 0 18
-6 17 -12 -2 -10 16 -12 72 -11 46 2 67 -1 56 -6 -19 -7 -18 -8 5 -14 15 -4
28 -2 34 7 14 18 45 16 45 -3 1 -13 3 -12 15 3 11 14 15 16 15 5 1 -11 3 -11
13 2 10 13 16 14 32 5 11 -6 22 -13 25 -16 3 -3 32 -6 64 -7 33 -1 64 -7 70
-13 5 -5 20 -10 32 -10 13 0 26 -5 30 -11 4 -7 21 -9 40 -6 19 3 36 1 39 -4 4
-5 19 -9 36 -9 16 0 29 -4 29 -9 0 -6 16 -3 35 5 34 14 37 13 62 -10 15 -14
30 -22 33 -17 3 4 21 6 40 5 102 -11 139 -11 134 -3 -8 14 22 10 35 -4 7 -9
29 -13 66 -11 30 2 55 -1 55 -6 0 -5 19 -8 43 -6 23 2 45 -1 48 -6 4 -6 13 -6
25 0 11 6 32 13 47 17 15 3 26 9 23 14 -3 4 24 8 59 7 36 -1 67 4 69 9 5 11
28 -20 36 -50 5 -15 20 -22 70 -31 77 -13 93 -17 100 -24 19 -22 194 -30 648
-30 l492 -1 0 1581 0 1580 -1055 0 c-995 0 -1054 -1 -1049 -18 5 -16 5 -16 -6
1 -10 15 -26 17 -136 15 -80 -1 -124 -5 -124 -12 0 -6 -5 -4 -10 4 -8 12 -10
12 -11 -5 l0 -20 -9 20 -9 20 -1 -20 c-1 -18 -1 -19 -11 -2 -12 21 -31 23 -23
2 8 -20 -13 -19 -24 0 -4 9 -11 13 -14 10z m1975 -946 c-7 -6 -554 -39 -645
-39 l-28 0 0 188 c0 103 3 257 7 343 l6 157 56 11 c51 9 469 56 566 63 l40 3
3 -359 c1 -198 -1 -363 -5 -367z m-1010 144 c-2 -258 -6 -483 -9 -500 -5 -32
-7 -33 -52 -33 -26 0 -209 -7 -407 -15 -198 -8 -402 -15 -452 -15 l-93 0 0
178 c0 97 3 301 7 453 l6 277 71 11 c39 6 235 31 436 56 201 24 379 46 395 48
17 2 46 5 66 6 l35 1 -3 -467z m-1223 160 c0 -87 -5 -333 -10 -547 -7 -294
-13 -392 -22 -398 -7 -4 -156 -8 -330 -8 l-318 0 0 93 c0 50 5 282 12 514 9
328 15 423 25 427 7 3 111 17 230 31 120 14 250 29 288 34 39 5 82 9 98 10
l27 1 0 -157z m-904 -220 c-5 -185 -11 -272 -19 -279 -8 -8 -77 -14 -191 -17
l-178 -5 6 217 c4 119 9 237 12 263 5 44 8 48 37 53 33 6 273 32 316 34 l24 1
-7 -267z m3270 -565 c-3 -128 -9 -318 -13 -421 l-6 -189 -166 7 c-91 4 -295
12 -453 19 -158 6 -290 15 -294 18 -8 9 10 765 18 774 6 5 480 19 792 22 l129
2 -7 -232z m-3206 24 c0 -55 -3 -194 -7 -310 l-6 -212 -156 0 c-86 0 -199 3
-253 7 l-96 6 5 291 c3 160 7 293 9 295 5 5 255 17 407 19 l97 2 0 -98z m2138
-24 c7 -7 12 -42 12 -89 0 -59 -4 -82 -18 -99 l-18 -22 -468 -3 c-277 -2 -471
-7 -475 -13 -3 -5 -16 -14 -28 -21 -21 -10 -23 -19 -23 -85 0 -81 -15 -106
-60 -101 -14 2 -214 6 -445 10 -231 3 -426 8 -432 10 -21 7 -17 149 3 166 18
15 105 16 460 6 198 -6 212 -4 340 40 l40 14 11 75 c6 41 13 77 15 79 7 8 203
15 537 20 189 3 346 7 350 9 3 2 15 0 26 -4 11 -4 32 -4 46 0 15 4 32 4 40 -1
8 -4 19 -3 26 3 7 5 20 8 28 4 9 -3 13 -2 10 4 -9 14 9 12 23 -2z m-91 -292
c1 -1 -2 -137 -7 -302 -5 -164 -12 -442 -16 -616 l-7 -318 -36 0 c-31 0 -619
69 -738 86 l-43 6 0 132 c0 202 20 999 25 1015 4 11 72 12 413 6 224 -4 408
-8 409 -9z m-1134 -203 l77 -6 -1 -136 c-1 -237 -15 -761 -21 -766 -9 -9 -815
89 -826 100 -2 2 0 189 4 416 l7 412 341 -7 c188 -3 376 -9 419 -13z m-1105
-169 l91 -7 -6 -306 c-3 -168 -7 -307 -8 -309 -2 -2 -72 6 -155 17 -84 12
-157 21 -162 21 -10 0 -11 193 -1 423 l6 167 72 0 c40 0 113 -3 163 -6z m2996
-154 c115 -5 211 -11 213 -14 8 -7 -18 -800 -26 -809 -6 -6 -580 48 -587 56
-3 3 17 761 20 772 4 11 34 10 380 -5z"/>
<path d="M3420 2724 c-69 -7 -133 -13 -142 -13 -17 -1 -18 -17 -18 -187 l0
-186 163 7 c89 3 170 9 180 11 12 4 17 16 17 44 0 21 -5 42 -11 45 -6 4 -8 13
-5 21 3 7 -3 18 -12 23 -15 9 -14 10 6 11 22 0 22 2 22 120 l0 120 -37 -1
c-21 -1 -94 -7 -163 -15z"/>
<path d="M2192 2570 c-134 -16 -245 -30 -246 -32 -2 -1 -6 -60 -9 -130 -5
-104 -4 -130 8 -142 12 -12 12 -15 0 -19 -11 -5 -13 -33 -12 -139 l2 -133 160
2 c88 2 188 5 223 9 54 5 62 8 57 22 -8 20 -13 42 -14 62 -1 13 -3 13 -10 1
-5 -8 -7 -20 -4 -27 10 -27 -18 -22 -59 9 -49 38 -85 51 -91 33 -3 -8 -8 -8
-18 2 -11 10 -11 12 1 13 10 0 7 4 -5 9 -17 7 -16 9 10 9 23 1 27 4 15 11 -8
5 -10 10 -5 10 6 0 20 -7 32 -15 19 -13 21 -13 27 8 10 37 7 74 -7 86 -8 6
-16 8 -19 6 -3 -3 -13 7 -23 22 -10 15 -29 40 -42 55 l-25 26 21 21 c12 12 21
28 21 36 0 9 6 12 16 8 9 -3 20 0 24 7 11 18 29 3 23 -20 -8 -29 4 -24 21 9
18 34 35 42 68 33 20 -6 19 -7 -12 -12 -34 -5 -35 -6 -34 -50 1 -41 -8 -59
-28 -60 -5 0 -9 12 -9 28 -1 21 -3 22 -6 6 -3 -16 -10 -20 -29 -16 -17 3 -24
0 -24 -12 0 -22 27 -31 45 -16 15 12 16 11 19 -12 1 -15 26 -23 26 -9 0 6 5
11 10 11 6 0 10 -6 10 -14 0 -8 11 -17 24 -20 13 -3 32 -9 42 -13 15 -6 16 -1
10 48 -4 30 -11 58 -17 64 -18 18 -8 25 36 25 40 0 45 2 42 21 -1 12 4 24 11
27 9 3 13 -3 10 -19 -2 -16 2 -23 10 -21 7 1 20 -4 28 -13 9 -8 24 -15 35 -15
18 0 19 8 19 125 l0 125 -57 -1 c-32 -1 -167 -14 -301 -29z m-63 -82 c8 -23
-11 -54 -27 -44 -11 7 -32 -29 -24 -40 4 -5 14 -9 22 -9 19 0 26 -34 9 -49 -9
-8 -10 -8 -5 2 4 6 2 12 -3 12 -13 0 -13 -3 -5 -24 3 -9 15 -16 27 -16 11 0
17 -3 14 -7 -4 -3 0 -15 10 -25 14 -15 14 -18 1 -18 -20 0 -71 -52 -59 -59 5
-4 -9 -7 -32 -7 -23 -1 -43 -7 -45 -13 -5 -16 -22 -13 -22 4 0 8 -4 15 -9 15
-18 0 23 81 51 101 15 11 28 26 28 33 0 19 -29 42 -72 57 -24 8 -38 19 -38 30
0 22 26 44 35 29 9 -15 25 -12 25 5 0 20 16 19 24 -1 5 -13 12 -10 37 15 36
37 47 38 58 9z"/>
<path d="M997 2210 c-4 -102 -10 -245 -13 -317 l-6 -133 55 0 c57 0 86 17 48
27 -24 6 -27 18 -8 30 20 12 59 81 52 93 -3 5 -2 10 2 10 5 0 14 9 21 21 14
21 7 63 -9 54 -5 -3 -7 0 -5 7 3 7 7 32 10 56 5 33 3 42 -9 42 -8 0 -15 9 -15
19 0 11 -4 22 -9 25 -5 4 -7 -3 -4 -14 3 -11 0 -20 -6 -20 -6 0 -11 16 -11 35
0 25 -4 35 -16 35 -13 0 -15 -7 -9 -41 5 -29 4 -40 -4 -35 -6 4 -11 15 -11 24
0 13 -2 13 -15 -4 -13 -17 -14 -17 -15 -2 0 9 7 21 16 26 14 8 14 13 4 32 -11
20 -10 25 4 35 21 16 20 21 -3 44 -20 20 -20 20 -24 -2 -4 -18 -5 -17 -6 6 0
15 4 27 9 27 6 0 10 10 10 23 0 17 -2 19 -9 7 -7 -10 -11 -1 -13 30 -2 25 -7
-38 -11 -140z"/>
<path d="M1395 2249 c5 -29 2 -50 -8 -72 -9 -18 -18 -40 -21 -49 -4 -14 -16
-18 -50 -18 -24 0 -51 -3 -60 -6 -13 -5 -16 2 -17 42 0 39 -2 45 -10 29 -8
-17 -9 -16 -6 8 3 15 -1 27 -7 27 -15 0 -49 -87 -42 -107 4 -9 2 -19 -3 -22
-16 -10 -21 -59 -7 -64 8 -3 18 -40 24 -92 7 -48 17 -94 24 -102 10 -12 9 -18
-5 -28 -9 -7 -17 -15 -17 -19 0 -3 47 -6 104 -6 l104 0 6 223 c7 250 6 297 -7
297 -5 0 -6 -18 -2 -41z"/>
<path d="M469 2289 c-17 -17 -19 -23 -8 -30 10 -6 7 -9 -11 -9 -29 0 -58 16
-47 26 3 4 13 1 21 -5 10 -8 16 -9 21 -2 3 6 -6 16 -20 23 -21 9 -28 9 -34 -1
-4 -6 -14 -11 -22 -9 -9 2 -14 -7 -15 -27 -1 -16 -5 -54 -8 -83 l-5 -53 102 3
102 3 3 68 c2 55 0 67 -13 67 -12 0 -14 4 -6 19 8 15 7 20 -5 25 -25 10 -33 7
-55 -15z"/>
<path d="M3683 1729 c-6 -6 -9 -17 -6 -24 3 -9 -2 -12 -15 -8 -15 4 -20 -2
-26 -27 -3 -18 -6 -42 -6 -54 0 -12 -7 -31 -15 -42 -14 -17 -14 -15 -8 25 4
32 3 42 -5 37 -7 -4 -13 -15 -13 -24 -1 -9 -5 1 -8 23 -4 27 -12 41 -23 43
-13 3 -18 -3 -18 -21 0 -14 4 -27 9 -29 13 -4 18 -67 6 -70 -6 -2 -10 9 -10
24 -1 15 -4 30 -8 34 -4 4 -7 0 -7 -10 0 -16 -22 -46 -33 -46 -10 0 -12 70 -2
70 5 0 3 5 -7 10 -22 14 -68 9 -68 -7 0 -7 -4 -13 -9 -13 -13 0 -1 73 13 82 7
5 4 8 -7 8 -11 0 -15 4 -11 12 4 7 3 8 -4 4 -6 -4 -9 -14 -6 -24 3 -11 0 -10
-12 6 -15 20 -24 22 -115 22 l-99 0 0 -135 c0 -83 4 -135 10 -135 6 0 10 -9
10 -20 0 -13 -5 -18 -15 -14 -12 5 -15 -3 -15 -35 l0 -41 70 0 70 0 0 33 c1
27 2 29 11 14 6 -10 8 -25 5 -33 -4 -10 2 -14 19 -14 14 0 25 7 28 18 4 16 5
16 6 0 1 -20 21 -25 21 -6 0 6 7 3 16 -8 10 -13 17 -15 20 -7 4 10 10 10 25 0
16 -10 21 -9 29 3 6 10 10 11 10 3 0 -7 11 -13 24 -13 22 0 25 5 29 48 l3 47
2 -47 2 -47 40 1 c22 0 37 4 35 8 -3 5 -1 11 5 15 5 3 11 23 12 43 1 37 1 37
7 -7 11 -85 35 -48 33 51 -1 10 3 20 8 23 7 5 15 265 7 265 -1 0 -8 -5 -14
-11z"/>
<path d="M517 1663 c4 -11 3 -14 -5 -9 -8 5 -10 1 -5 -10 5 -14 2 -16 -18 -10
-43 14 -86 8 -94 -13 -5 -13 -8 -13 -15 -2 -12 21 -1 40 21 36 10 -2 19 0 19
5 0 4 -27 8 -60 7 l-60 0 0 -89 c0 -77 2 -88 18 -88 16 -1 16 -1 0 -11 -25
-14 -24 -59 2 -59 13 0 18 -5 14 -15 -4 -8 -1 -15 5 -15 6 0 11 7 11 16 0 13
9 15 44 12 36 -2 46 0 50 14 2 11 -1 18 -10 18 -8 0 -11 6 -8 15 4 9 0 15 -10
15 -9 0 -16 -4 -16 -10 0 -5 -7 -10 -15 -10 -10 0 -15 10 -15 30 0 18 -6 33
-15 36 -8 4 -15 12 -15 20 0 8 7 14 15 14 8 0 15 -7 15 -15 0 -8 7 -15 15 -15
8 0 15 -4 15 -9 0 -5 7 -11 14 -14 10 -4 13 -1 10 8 -3 8 -15 17 -26 21 -28 9
-15 16 16 8 14 -3 23 -10 20 -15 -3 -5 0 -9 5 -9 6 0 11 4 11 10 0 15 49 23
64 11 11 -10 16 -8 24 5 7 13 11 14 17 4 5 -8 2 -16 -8 -21 -12 -7 -14 -19
-10 -44 4 -26 2 -35 -8 -35 -19 0 -35 29 -34 63 1 28 -9 35 -21 15 -4 -6 -2
-14 5 -16 9 -3 8 -7 -2 -16 -19 -14 -3 -76 19 -76 8 0 24 -8 35 -19 11 -10 29
-17 39 -14 15 4 19 19 24 111 8 159 7 182 -7 182 -7 0 -19 -6 -26 -12 -11 -10
-14 -10 -18 0 -3 6 -11 12 -19 12 -8 0 -11 -6 -7 -17z"/>
<path d="M2060 1191 c0 -14 5 -18 20 -14 16 4 20 0 20 -17 0 -13 -8 -24 -20
-27 -18 -5 -20 -14 -20 -94 0 -84 1 -89 21 -89 12 0 19 -5 17 -12 -3 -7 -13
-13 -24 -13 -18 0 -19 -10 -22 -135 -2 -122 -1 -137 18 -162 26 -35 26 -64 0
-71 -13 -3 -20 -14 -20 -30 0 -28 20 -37 87 -37 l42 0 6 58 c3 31 10 76 15 99
16 68 12 127 -15 210 -27 86 -31 113 -14 113 6 0 9 -6 6 -12 -7 -21 12 -48 33
-48 11 0 19 -3 19 -7 -1 -5 -1 -16 0 -26 1 -16 4 -16 38 -2 20 9 34 13 30 9
-4 -4 -2 -13 3 -20 6 -6 10 -16 9 -20 -4 -23 2 -44 12 -44 7 0 9 10 5 25 -4
14 -2 25 4 25 5 0 10 -5 10 -11 0 -5 5 -7 10 -4 6 4 9 -3 7 -16 -2 -13 -11
-25 -19 -28 -9 -4 -13 -13 -9 -23 5 -14 10 -12 29 16 21 30 22 39 13 72 -10
35 -4 66 6 36 4 -10 9 -8 19 5 16 21 18 59 4 68 -13 8 -13 45 -1 45 6 0 13 -5
16 -10 10 -16 86 -54 121 -61 l31 -5 6 125 c2 69 1 130 -3 134 -4 4 -89 7
-188 5 -100 -2 -182 0 -182 5 0 4 -31 7 -70 7 -62 0 -70 -2 -70 -19z"/>
<path d="M1006 1058 c-3 -13 -6 -42 -6 -65 0 -33 4 -43 16 -43 9 0 14 -7 12
-17 -2 -10 3 -23 12 -30 13 -11 13 -12 -2 -13 -12 0 -15 -5 -11 -17 5 -12 2
-15 -10 -10 -15 6 -17 -8 -17 -148 l0 -154 43 -6 c23 -3 62 -7 87 -8 43 -2 45
-1 42 23 -2 14 1 37 6 50 9 24 10 23 17 -13 5 -23 11 -34 15 -27 4 7 9 0 13
-18 l6 -29 114 -11 c183 -19 167 -25 167 63 0 43 -4 75 -10 75 -5 0 -10 -9
-10 -19 0 -14 -5 -18 -20 -14 -11 3 -18 9 -15 13 3 5 1 11 -5 15 -13 8 -13 35
0 35 6 0 10 -6 10 -14 0 -8 5 -18 11 -22 8 -4 9 0 4 15 -4 12 -2 21 4 21 6 0
11 4 11 9 0 6 -9 8 -20 6 -16 -3 -19 1 -16 28 3 28 8 46 23 82 3 6 -4 -1 -14
-14 -15 -17 -20 -19 -20 -7 0 9 8 23 18 32 15 13 22 14 33 5 12 -10 14 1 18
71 2 51 0 86 -6 90 -7 5 -7 11 2 20 19 19 14 28 -14 28 -26 0 -58 -23 -47 -34
4 -3 -3 -6 -14 -6 -12 0 -24 -6 -26 -12 -4 -10 -6 -10 -6 0 -1 17 -41 15 -41
-3 0 -8 -5 -15 -11 -15 -6 0 -8 8 -4 20 6 18 1 19 -81 19 -85 0 -112 9 -97 35
3 5 1 6 -5 2 -6 -3 -13 -2 -17 4 -3 5 -28 10 -56 10 -27 0 -49 5 -49 10 0 20
-28 9 -34 -12z"/>
<path d="M3277 744 c-8 -9 -10 -94 -2 -94 3 0 25 10 47 21 30 15 43 18 46 10
2 -7 14 -24 26 -38 l22 -26 27 32 c21 25 31 30 52 25 14 -3 28 -10 31 -15 11
-18 22 -8 29 27 3 20 3 40 -2 44 -11 10 -267 23 -276 14z"/>
<path d="M3386 591 c-4 -5 -3 -17 0 -26 4 -10 2 -15 -7 -13 -8 2 -13 -3 -11
-10 2 -10 -4 -11 -20 -6 -20 6 -21 5 -10 -8 10 -13 9 -16 -7 -21 -25 -6 -38
-68 -22 -103 6 -14 11 -30 10 -37 0 -7 -4 -2 -9 11 -16 39 -37 26 -43 -25 -6
-55 -3 -63 23 -63 14 0 18 5 13 16 -5 13 -2 15 15 9 16 -4 22 -2 22 8 0 8 10
18 23 21 l22 6 -25 14 c-26 15 -27 15 24 30 8 3 16 14 18 26 2 11 8 20 13 19
6 0 9 -5 8 -9 -1 -4 11 -10 28 -12 22 -4 34 1 45 16 17 25 18 52 1 63 -7 4
-20 21 -30 36 -10 15 -22 25 -27 22 -16 -10 -50 14 -44 30 7 16 -1 21 -10 6z"/>
</g>
</svg>
